<?xml version="1.0" encoding="UTF-8" standalone="no"?>
<svg
   xmlns:dc="http://purl.org/dc/elements/1.1/"
   xmlns:cc="http://creativecommons.org/ns#"
   xmlns:rdf="http://www.w3.org/1999/02/22-rdf-syntax-ns#"
   xmlns:svg="http://www.w3.org/2000/svg"
   xmlns="http://www.w3.org/2000/svg"
   xmlns:sodipodi="http://sodipodi.sourceforge.net/DTD/sodipodi-0.dtd"
   xmlns:inkscape="http://www.inkscape.org/namespaces/inkscape"
   width="210mm"
   height="297mm"
   viewBox="0 0 210 297"
   version="1.1"
   id="svg8"
   inkscape:version="1.0.1 (3bc2e813f5, 2020-09-07)"
   sodipodi:docname="clarion_idea.svg">
  <defs
     id="defs2">
    <rect
       x="57.730218"
       y="7.7508163"
       width="142.45466"
       height="43.030394"
       id="rect989" />
    <pattern
       id="EMFhbasepattern"
       patternUnits="userSpaceOnUse"
       width="6"
       height="6"
       x="0"
       y="0" />
  </defs>
  <sodipodi:namedview
     id="base"
     pagecolor="#ffffff"
     bordercolor="#666666"
     borderopacity="1.0"
     inkscape:pageopacity="0.0"
     inkscape:pageshadow="2"
     inkscape:zoom="1.4"
     inkscape:cx="398.4116"
     inkscape:cy="24.884195"
     inkscape:document-units="mm"
     inkscape:current-layer="layer1"
     inkscape:document-rotation="0"
     showgrid="false"
     inkscape:window-width="1920"
     inkscape:window-height="1027"
     inkscape:window-x="1912"
     inkscape:window-y="68"
     inkscape:window-maximized="1" />
  <metadata
     id="metadata5">
    <rdf:RDF>
      <cc:Work
         rdf:about="">
        <dc:format>image/svg+xml</dc:format>
        <dc:type
           rdf:resource="http://purl.org/dc/dcmitype/StillImage" />
        <dc:title />
      </cc:Work>
    </rdf:RDF>
  </metadata>
  <g
     inkscape:label="Layer 1"
     inkscape:groupmode="layer"
     id="layer1">
    <circle
       style="fill:#5555ff;stroke-width:6.66501"
       id="path835"
       cx="-197.03192"
       cy="-2.0593572"
       r="37.01683" />
    <circle
       style="fill:#ffffff;stroke-width:6.66501"
       id="path837"
       cx="-173.1113"
       cy="-17.694626"
       r="27.261492" />
    <path
       style="fill:#ffffff;stroke:none;stroke-width:0.265;stroke-linecap:butt;stroke-linejoin:miter;stroke-miterlimit:4;stroke-dasharray:none;stroke-opacity:1"
       d="m -199.80602,-34.815999 c -18.447,34.07342473 10.81441,52.088615 30.736,48.108525 -20.05753,3.57859 -39.97841,-3.19195 -57.99748,10.95805 l -6.1472,-7.75082 c 15.04166,-8.7950903 29.41556,-47.005643 33.40868,-51.315755 z"
       id="path855"
       sodipodi:nodetypes="ccccc" />
    <ellipse
       style="fill:#5555ff;stroke:none;stroke-width:0.290526;stroke-miterlimit:4;stroke-dasharray:none"
       id="path857"
       cx="-172.57678"
       cy="-17.427353"
       rx="23.986427"
       ry="23.489878" />
    <path
       style="fill:#6d6dfe;stroke-width:0.264815"
       d="m -161.0187,173.75476 c -7.32514,-1.2401 -14.08423,-4.63482 -19.46389,-9.77567 l -1.58889,-1.51835 0.76103,-0.61558 c 2.14844,-1.73781 9.28592,-4.64898 13.67893,-5.57923 5.37193,-1.13755 8.23794,-1.34052 24.26511,-1.71852 11.58955,-0.27333 14.10375,-0.54599 18.71687,-2.02982 1.57855,-0.50774 2.91705,-0.87621 2.97444,-0.81882 0.18177,0.18177 -1.68505,3.86418 -2.96278,5.84423 -5.60119,8.68002 -14.64092,14.55423 -24.98021,16.23267 -2.75746,0.44763 -8.69731,0.43674 -11.40061,-0.0209 z m 13.50556,-0.63585 c 7.12319,-1.67456 12.72031,-4.77015 17.74782,-9.81576 1.53219,-1.5377 3.41203,-3.71333 4.17742,-4.83473 1.29631,-1.89927 3.49698,-5.90025 3.49698,-6.35778 0,-0.11114 -0.62563,0.0461 -1.39028,0.34938 -4.38105,1.73774 -8.77091,2.17478 -26.28287,2.61665 -12.43365,0.31373 -16.09383,0.73838 -21.91963,2.54306 -2.45225,0.75965 -8.93318,3.8406 -9.48986,4.51136 -0.32222,0.38824 -0.13753,0.64779 1.62013,2.27676 4.88302,4.52553 11.75586,7.93715 18.0051,8.93758 1.09236,0.17488 2.16486,0.36084 2.38333,0.41324 0.21848,0.0524 2.42306,0.049 4.89908,-0.008 3.27319,-0.0748 5.11618,-0.24736 6.75278,-0.6321 z m -42.04602,-24.19309 c -0.3821,-0.46232 -1.02212,-3.07755 -1.4006,-5.7231 -0.40458,-2.82798 -0.17216,-9.81026 0.41565,-12.48706 1.46817,-6.68574 4.55688,-12.51414 9.21252,-17.38403 6.2178,-6.50393 13.69159,-10.20334 22.69622,-11.23428 2.43486,-0.27877 8.08414,-0.19508 8.40371,0.12449 0.0582,0.0582 -1.31949,1.51789 -3.06151,3.24379 -3.56136,3.52841 -6.02148,7.02066 -11.59631,16.46147 -8.51493,14.41978 -13.0555,20.03569 -19.83014,24.52651 -3.57505,2.36985 -4.52365,2.85443 -4.83954,2.47221 z m 1.6061,-0.76768 c 2.15522,-1.09205 5.74839,-3.73581 8.1674,-6.00937 4.38795,-4.1241 8.38793,-9.6569 14.39206,-19.90718 3.63112,-6.19909 7.82628,-12.57346 9.83598,-14.94539 0.85608,-1.01037 2.2914,-2.44037 3.1896,-3.17777 0.8982,-0.7374 1.64299,-1.41994 1.65509,-1.51675 0.0403,-0.32204 -3.99753,-0.55839 -6.44043,-0.37699 -9.05948,0.67275 -17.02465,4.29265 -23.3386,10.6066 -8.89883,8.89883 -12.36851,21.36978 -9.48854,34.10428 0.22234,0.98312 0.51862,1.7875 0.65839,1.7875 0.13978,0 0.75585,-0.25422 1.36905,-0.56493 z m 52.09177,-2.86537 c -4.728,-1.00838 -9.07668,-3.47656 -12.40541,-7.04094 -2.14978,-2.30196 -3.00166,-3.93086 -3.92451,-7.50413 -0.5921,-2.2926 -0.64638,-2.93236 -0.542,-6.38759 0.0987,-3.26844 0.22454,-4.17476 0.84544,-6.09074 1.36981,-4.22697 3.2014,-7.25301 6.1449,-10.15223 2.0618,-2.03077 3.88856,-3.35333 4.63174,-3.35333 0.73121,0 4.00282,1.6979 6.56153,3.40531 7.50986,5.01128 12.91086,13.06668 14.98419,22.3484 0.5034,2.25358 0.82428,10.21957 0.46666,11.58518 -0.21951,0.83823 -0.43959,1.01155 -2.30178,1.81274 -4.26341,1.83427 -9.83163,2.36462 -14.46076,1.37733 z m 8.73889,-0.023 c 2.05315,-0.32394 4.69488,-1.15218 6.40492,-2.00808 1.14882,-0.57501 1.25486,-0.71339 1.42714,-1.86221 0.30998,-2.06709 -0.0797,-8.74323 -0.65454,-11.21341 -1.83964,-7.90546 -5.76801,-14.47343 -11.58133,-19.36324 -3.24732,-2.73145 -8.32048,-5.79416 -9.59759,-5.79416 -1.22639,0 -5.35658,3.7893 -7.36026,6.75277 -3.06635,4.5352 -4.22725,8.71847 -3.98756,14.36919 0.27636,6.51522 2.08299,10.34885 6.60661,14.01906 5.22454,4.2389 12.1891,6.13403 18.74261,5.10007 z"
       id="path958" />
    <g
       id="g863"
       transform="matrix(0.72654373,0,0,0.72654373,7.2499441,1.5370875)">
      <path
         style="fill:#f9da59;fill-opacity:1;stroke-width:0.144525"
         d="m 37.177984,30.058086 c -2.810829,-0.531138 -5.69307,-2.190977 -7.395582,-4.258995 -1.349592,-1.63934 -1.913306,-3.334834 -2.030961,-6.108583 -0.130813,-3.083932 0.502759,-5.36699 2.176247,-7.842117 1.093527,-1.617341 3.347616,-3.6853859 4.016924,-3.6853859 0.696994,0 3.465718,1.6715019 5.237972,3.1622159 3.172673,2.668658 5.316616,6.253188 6.320617,10.567665 0.313713,1.348123 0.526395,4.991687 0.357221,6.119815 -0.09402,0.626979 -0.151896,0.702501 -0.778875,1.016313 -2.243452,1.122899 -5.300549,1.520943 -7.903563,1.029072 z"
         id="path976" />
      <path
         style="fill:#5f5fd3;fill-opacity:1;stroke-width:0.144525"
         d="M 7.280625,31.0341 C 6.6887438,28.416945 6.5793136,25.437067 6.9870066,23.038423 8.1855428,15.986932 13.114315,10.10832 19.807748,7.746962 c 1.572965,-0.554917 3.6555,-0.9855373 5.388591,-1.1142382 1.333235,-0.099001 3.536901,0.030017 3.514923,0.2057457 -0.0066,0.052829 -0.41308,0.4253374 -0.90328,0.8277802 -0.490201,0.4024482 -1.27354,1.1828838 -1.740754,1.7343024 -1.096812,1.2945029 -3.386359,4.7733729 -5.368076,8.1565829 -3.276811,5.594184 -5.459836,8.61376 -7.8546,10.864525 -1.680763,1.5797 -4.5939111,3.587985 -5.2046046,3.587985 -0.076281,0 -0.2379783,-0.438998 -0.3593224,-0.975545 z"
         id="path974" />
      <path
         style="fill:#8dd35f;fill-opacity:1;stroke-width:0.144525"
         d="m 24.098468,45.673052 c -0.119232,-0.0286 -0.704559,-0.130087 -1.300724,-0.22553 -3.41058,-0.545993 -7.161498,-2.407916 -9.82645,-4.877765 -0.959259,-0.889026 -1.060056,-1.030678 -0.884201,-1.242563 0.303813,-0.366073 3.84084,-2.04753 5.179178,-2.462116 3.179485,-0.984921 5.177062,-1.216677 11.96284,-1.387898 9.557307,-0.241155 11.953113,-0.479673 14.344111,-1.428061 0.417315,-0.165523 0.758758,-0.251333 0.758758,-0.190677 0,0.06066 -0.258532,0.615807 -0.57451,1.233672 -1.857862,3.632862 -5.287975,6.97937 -8.926736,8.709175 -2.788038,1.325382 -4.806768,1.793228 -8.058549,1.867582 -1.35131,0.03089 -2.55448,0.0328 -2.673717,0.0044 z"
         id="path956" />
    </g>
    <path
       style="fill:#000000;stroke-width:0.264815"
       id="path872"
       d="" />
    <path
       style="fill:#000000;stroke-width:0.225643"
       d="m 56.803643,31.706674 c -3.484697,-0.586765 -5.920313,-2.293708 -7.394698,-5.182395 -0.801262,-1.569871 -1.121262,-3.087389 -1.118166,-5.30262 0.0033,-2.385453 0.241354,-3.565166 1.054283,-5.225383 1.720149,-3.513002 4.890451,-5.304513 9.42994,-5.328779 2.356312,-0.0126 3.601198,0.252931 5.602977,1.195084 1.232815,0.580235 1.390404,0.869723 1.59405,2.928241 l 0.145097,1.466682 -0.472627,-0.941858 c -1.961895,-3.90969 -7.611343,-5.156009 -11.549,-2.547813 -2.304188,1.526231 -3.558417,4.068176 -3.72714,7.55379 -0.185434,3.830821 0.72371,6.549693 2.852773,8.531461 1.790201,1.666349 2.853498,2.061816 5.55387,2.065634 1.961232,0.0028 2.420142,-0.07344 3.507769,-0.582525 2.305288,-1.079043 3.616577,-2.696441 4.390174,-5.415027 l 0.34643,-1.21743 -0.126851,1.916175 c -0.06977,1.053895 -0.260475,2.12006 -0.423794,2.369255 -1.154248,1.761177 -3.75165,3.339323 -6.139709,3.730401 -1.498012,0.24532 -2.002866,0.243474 -3.525378,-0.01288 z m 84.218377,-0.0147 c -2.80827,-0.486571 -5.48339,-2.337943 -6.71379,-4.646396 -2.49919,-4.688962 -0.66531,-10.25545 4.11889,-12.502315 3.48241,-1.63549 7.84446,-1.226411 10.89886,1.02211 2.28254,1.680313 3.42949,4.062502 3.42949,7.122973 0,3.060471 -1.14695,5.44266 -3.42949,7.122974 -2.20328,1.621958 -5.49473,2.367396 -8.30396,1.880654 z m 5.36673,-1.413762 c 1.57803,-0.807763 2.89232,-2.156464 3.62562,-3.720541 0.53771,-1.146916 0.59749,-1.534053 0.59749,-3.869325 0,-2.335272 -0.0598,-2.722409 -0.59749,-3.869325 -0.73046,-1.558015 -2.04086,-2.906187 -3.62562,-3.730106 -1.05067,-0.546249 -1.44701,-0.620888 -3.33594,-0.628226 -1.83043,-0.0071 -2.30845,0.07268 -3.27183,0.546131 -3.43772,1.689455 -5.15567,5.516218 -4.31877,9.620111 0.59218,2.90384 2.54091,5.218944 5.10852,6.068936 1.61227,0.533734 4.34226,0.337758 5.81802,-0.417655 z m 20.00591,-5.600804 -7.65964,-7.262319 -0.06,6.39444 c -0.0664,7.073782 -0.0786,7.008296 1.39549,7.436328 0.49866,0.14479 -0.10234,0.201104 -2.12526,0.199134 -1.9551,-0.0018 -2.57988,-0.05935 -2.03622,-0.187221 0.43138,-0.10146 0.97595,-0.42107 1.21016,-0.710244 0.40376,-0.498525 0.42135,-0.955426 0.33931,-8.81744 l -0.0865,-8.291671 1.58408,1.539023 c 3.32556,3.230969 13.40475,12.675063 13.52744,12.675063 0.0707,0 0.12856,-2.82737 0.12856,-6.283043 0,-5.877572 -0.0276,-6.307985 -0.42704,-6.669511 -0.23487,-0.212557 -0.71719,-0.473416 -1.07181,-0.579686 -0.44108,-0.132181 0.24625,-0.196217 2.17578,-0.202709 2.67377,-0.009 2.77475,0.0068 1.94053,0.304119 -0.48401,0.172486 -0.96678,0.447263 -1.07282,0.610616 -0.10603,0.163352 -0.16695,4.079404 -0.13537,8.702336 0.0316,4.622933 0.0519,8.405281 0.0452,8.405218 -0.007,-6.3e-5 -3.45907,-3.268158 -7.67188,-7.262433 z m -95.388616,6.563196 c 1.416364,-0.413445 1.420383,-0.437643 1.420383,-8.552258 0,-8.114939 -0.0043,-8.140801 -1.420383,-8.550268 -0.532173,-0.15388 0.08148,-0.209377 2.322956,-0.21008 2.040171,-6.32e-4 2.833251,0.06285 2.401421,0.192263 -0.354621,0.10627 -0.836934,0.367129 -1.071806,0.579686 -0.403168,0.364862 -0.427041,0.819696 -0.427041,8.136193 v 7.749725 h 2.974945 c 3.658943,0 4.591609,-0.340177 5.664464,-2.066038 0.373683,-0.601133 0.713536,-1.092969 0.755226,-1.092969 0.04169,0 -0.137153,0.533082 -0.397432,1.184628 -0.260278,0.651545 -0.598969,1.540016 -0.752647,1.974379 l -0.279417,0.789752 -5.956949,0.03805 c -4.003839,0.02558 -5.719823,-0.03117 -5.23372,-0.173064 z m 14.169234,-0.172647 c 0.496415,-0.225815 1.020578,-0.553589 1.16481,-0.728386 0.282065,-0.34185 6.659451,-13.938056 7.240314,-15.435923 0.192507,-0.496415 0.420249,-0.983002 0.506093,-1.081304 0.08584,-0.0983 1.81362,3.483996 3.839503,7.960661 2.034599,4.495921 3.933842,8.389811 4.242862,8.698823 0.30768,0.307687 0.87466,0.650889 1.25995,0.76267 0.5007,0.145269 -0.20055,0.206525 -2.4585,0.214759 -2.843117,0.01036 -3.088949,-0.01898 -2.458429,-0.293445 0.385313,-0.167728 0.7538,-0.50851 0.818857,-0.757289 0.06509,-0.248912 -0.284184,-1.480115 -0.776664,-2.737759 l -0.894954,-2.28543 -3.748133,0.06178 -3.74813,0.06178 -0.843444,1.917969 c -0.463894,1.054883 -0.849938,2.181466 -0.857874,2.503515 -0.01417,0.575188 0.445617,1.152305 1.113785,1.397986 0.186156,0.06845 -0.930779,0.130239 -2.482077,0.13731 l -2.820543,0.01286 0.902574,-0.410572 z m 12.063678,-6.518053 c -0.02377,-0.488147 -3.105575,-7.610531 -3.280988,-7.582728 -0.158742,0.02516 -2.479292,5.180882 -3.331811,7.402516 -0.117389,0.305906 0.286727,0.349445 3.243472,0.349445 1.857663,0 3.373861,-0.07615 3.369327,-0.169233 z m 8.967454,6.688709 c 1.41609,-0.409466 1.42038,-0.435329 1.42038,-8.550267 0,-8.113228 -0.003,-8.130228 -1.42038,-8.560837 -0.51048,-0.155067 0.67069,-0.204007 4.01528,-0.166368 3.96181,0.04459 4.88595,0.118719 5.63801,0.452276 1.81203,0.803682 2.82362,2.313157 2.82362,4.213348 0,2.066556 -1.50397,4.027353 -3.49816,4.560718 -0.92091,0.246307 -0.9599,0.286517 -0.55364,0.571071 0.24037,0.16836 1.38938,1.494145 2.55336,2.946191 2.65102,3.30709 3.44204,4.057824 4.68351,4.444976 l 0.98933,0.308529 -1.03085,0.0151 c -2.65562,0.03888 -4.40939,-1.103527 -6.70807,-4.369672 -1.75237,-2.489902 -2.7137,-3.514782 -3.72101,-3.966971 l -0.8547,-0.38368 1.90338,-0.118748 c 2.23268,-0.139292 3.03962,-0.526876 3.75796,-1.804988 0.41241,-0.733786 0.48204,-1.149248 0.40906,-2.440763 -0.0797,-1.41075 -0.16027,-1.631078 -0.8606,-2.353637 -0.96072,-0.991206 -1.83505,-1.241201 -4.34657,-1.242802 l -1.97438,-0.0013 v 7.749725 c 0,7.316496 0.0239,7.77133 0.42704,8.136193 0.23488,0.212557 0.71719,0.473416 1.07181,0.579685 0.43183,0.129409 -0.36125,0.192905 -2.40142,0.192264 -2.24148,-6.77e-4 -2.85513,-0.0562 -2.32296,-0.210081 z m 18.30197,0.02657 c 0.41145,-0.09739 0.9953,-0.40931 1.29745,-0.693168 l 0.54937,-0.516103 v -7.364351 c 0,-7.085964 -0.0173,-7.382917 -0.45754,-7.855455 -0.25164,-0.270107 -0.73395,-0.551984 -1.0718,-0.626394 -0.33785,-0.07441 -0.71582,-0.169162 -0.83992,-0.210561 -0.1241,-0.0414 1.29745,-0.07413 3.15901,-0.07273 2.6271,0.002 3.20789,0.05279 2.5949,0.227054 -1.65394,0.470194 -1.57951,0.068 -1.57951,8.534875 0,8.46687 -0.0744,8.06468 1.57951,8.534874 0.61139,0.173813 0.0254,0.223897 -2.5949,0.221771 -2.12831,-0.0018 -3.10697,-0.06847 -2.63657,-0.179808 z"
       id="path843" />
  </g>
</svg>
