<?xml version="1.0" encoding="UTF-8" standalone="no"?>
<svg
   xmlns:dc="http://purl.org/dc/elements/1.1/"
   xmlns:cc="http://creativecommons.org/ns#"
   xmlns:rdf="http://www.w3.org/1999/02/22-rdf-syntax-ns#"
   xmlns:svg="http://www.w3.org/2000/svg"
   xmlns="http://www.w3.org/2000/svg"
   xmlns:sodipodi="http://sodipodi.sourceforge.net/DTD/sodipodi-0.dtd"
   xmlns:inkscape="http://www.inkscape.org/namespaces/inkscape"
   width="210mm"
   height="297mm"
   viewBox="0 0 210 297"
   version="1.1"
   id="svg8"
   inkscape:version="1.0.1 (3bc2e813f5, 2020-09-07)"
   sodipodi:docname="clarion_idea_mod1.svg">
  <defs
     id="defs2">
    <rect
       x="57.730218"
       y="7.7508163"
       width="142.45466"
       height="43.030394"
       id="rect989" />
    <pattern
       id="EMFhbasepattern"
       patternUnits="userSpaceOnUse"
       width="6"
       height="6"
       x="0"
       y="0" />
  </defs>
  <sodipodi:namedview
     id="base"
     pagecolor="#ffffff"
     bordercolor="#666666"
     borderopacity="1.0"
     inkscape:pageopacity="0.0"
     inkscape:pageshadow="2"
     inkscape:zoom="1.4"
     inkscape:cx="398.4116"
     inkscape:cy="110.59848"
     inkscape:document-units="mm"
     inkscape:current-layer="layer1"
     inkscape:document-rotation="0"
     showgrid="false"
     inkscape:window-width="1920"
     inkscape:window-height="1027"
     inkscape:window-x="1912"
     inkscape:window-y="68"
     inkscape:window-maximized="1" />
  <metadata
     id="metadata5">
    <rdf:RDF>
      <cc:Work
         rdf:about="">
        <dc:format>image/svg+xml</dc:format>
        <dc:type
           rdf:resource="http://purl.org/dc/dcmitype/StillImage" />
        <dc:title></dc:title>
      </cc:Work>
    </rdf:RDF>
  </metadata>
  <g
     inkscape:label="Layer 1"
     inkscape:groupmode="layer"
     id="layer1">
    <circle
       style="fill:#5555ff;stroke-width:6.66501"
       id="path835"
       cx="-197.03192"
       cy="-2.0593572"
       r="37.01683" />
    <circle
       style="fill:#ffffff;stroke-width:6.66501"
       id="path837"
       cx="-173.1113"
       cy="-17.694626"
       r="27.261492" />
    <path
       style="fill:#ffffff;stroke:none;stroke-width:0.265;stroke-linecap:butt;stroke-linejoin:miter;stroke-miterlimit:4;stroke-dasharray:none;stroke-opacity:1"
       d="m -199.80602,-34.815999 c -18.447,34.07342473 10.81441,52.088615 30.736,48.108525 -20.05753,3.57859 -39.97841,-3.19195 -57.99748,10.95805 l -6.1472,-7.75082 c 15.04166,-8.7950903 29.41556,-47.005643 33.40868,-51.315755 z"
       id="path855"
       sodipodi:nodetypes="ccccc" />
    <ellipse
       style="fill:#5555ff;stroke:none;stroke-width:0.290526;stroke-miterlimit:4;stroke-dasharray:none"
       id="path857"
       cx="-172.57678"
       cy="-17.427353"
       rx="23.986427"
       ry="23.489878" />
    <path
       style="fill:#6d6dfe;stroke-width:0.264815"
       d="m -161.0187,173.75476 c -7.32514,-1.2401 -14.08423,-4.63482 -19.46389,-9.77567 l -1.58889,-1.51835 0.76103,-0.61558 c 2.14844,-1.73781 9.28592,-4.64898 13.67893,-5.57923 5.37193,-1.13755 8.23794,-1.34052 24.26511,-1.71852 11.58955,-0.27333 14.10375,-0.54599 18.71687,-2.02982 1.57855,-0.50774 2.91705,-0.87621 2.97444,-0.81882 0.18177,0.18177 -1.68505,3.86418 -2.96278,5.84423 -5.60119,8.68002 -14.64092,14.55423 -24.98021,16.23267 -2.75746,0.44763 -8.69731,0.43674 -11.40061,-0.0209 z m 13.50556,-0.63585 c 7.12319,-1.67456 12.72031,-4.77015 17.74782,-9.81576 1.53219,-1.5377 3.41203,-3.71333 4.17742,-4.83473 1.29631,-1.89927 3.49698,-5.90025 3.49698,-6.35778 0,-0.11114 -0.62563,0.0461 -1.39028,0.34938 -4.38105,1.73774 -8.77091,2.17478 -26.28287,2.61665 -12.43365,0.31373 -16.09383,0.73838 -21.91963,2.54306 -2.45225,0.75965 -8.93318,3.8406 -9.48986,4.51136 -0.32222,0.38824 -0.13753,0.64779 1.62013,2.27676 4.88302,4.52553 11.75586,7.93715 18.0051,8.93758 1.09236,0.17488 2.16486,0.36084 2.38333,0.41324 0.21848,0.0524 2.42306,0.049 4.89908,-0.008 3.27319,-0.0748 5.11618,-0.24736 6.75278,-0.6321 z m -42.04602,-24.19309 c -0.3821,-0.46232 -1.02212,-3.07755 -1.4006,-5.7231 -0.40458,-2.82798 -0.17216,-9.81026 0.41565,-12.48706 1.46817,-6.68574 4.55688,-12.51414 9.21252,-17.38403 6.2178,-6.50393 13.69159,-10.20334 22.69622,-11.23428 2.43486,-0.27877 8.08414,-0.19508 8.40371,0.12449 0.0582,0.0582 -1.31949,1.51789 -3.06151,3.24379 -3.56136,3.52841 -6.02148,7.02066 -11.59631,16.46147 -8.51493,14.41978 -13.0555,20.03569 -19.83014,24.52651 -3.57505,2.36985 -4.52365,2.85443 -4.83954,2.47221 z m 1.6061,-0.76768 c 2.15522,-1.09205 5.74839,-3.73581 8.1674,-6.00937 4.38795,-4.1241 8.38793,-9.6569 14.39206,-19.90718 3.63112,-6.19909 7.82628,-12.57346 9.83598,-14.94539 0.85608,-1.01037 2.2914,-2.44037 3.1896,-3.17777 0.8982,-0.7374 1.64299,-1.41994 1.65509,-1.51675 0.0403,-0.32204 -3.99753,-0.55839 -6.44043,-0.37699 -9.05948,0.67275 -17.02465,4.29265 -23.3386,10.6066 -8.89883,8.89883 -12.36851,21.36978 -9.48854,34.10428 0.22234,0.98312 0.51862,1.7875 0.65839,1.7875 0.13978,0 0.75585,-0.25422 1.36905,-0.56493 z m 52.09177,-2.86537 c -4.728,-1.00838 -9.07668,-3.47656 -12.40541,-7.04094 -2.14978,-2.30196 -3.00166,-3.93086 -3.92451,-7.50413 -0.5921,-2.2926 -0.64638,-2.93236 -0.542,-6.38759 0.0987,-3.26844 0.22454,-4.17476 0.84544,-6.09074 1.36981,-4.22697 3.2014,-7.25301 6.1449,-10.15223 2.0618,-2.03077 3.88856,-3.35333 4.63174,-3.35333 0.73121,0 4.00282,1.6979 6.56153,3.40531 7.50986,5.01128 12.91086,13.06668 14.98419,22.3484 0.5034,2.25358 0.82428,10.21957 0.46666,11.58518 -0.21951,0.83823 -0.43959,1.01155 -2.30178,1.81274 -4.26341,1.83427 -9.83163,2.36462 -14.46076,1.37733 z m 8.73889,-0.023 c 2.05315,-0.32394 4.69488,-1.15218 6.40492,-2.00808 1.14882,-0.57501 1.25486,-0.71339 1.42714,-1.86221 0.30998,-2.06709 -0.0797,-8.74323 -0.65454,-11.21341 -1.83964,-7.90546 -5.76801,-14.47343 -11.58133,-19.36324 -3.24732,-2.73145 -8.32048,-5.79416 -9.59759,-5.79416 -1.22639,0 -5.35658,3.7893 -7.36026,6.75277 -3.06635,4.5352 -4.22725,8.71847 -3.98756,14.36919 0.27636,6.51522 2.08299,10.34885 6.60661,14.01906 5.22454,4.2389 12.1891,6.13403 18.74261,5.10007 z"
       id="path958" />
    <g
       id="g865"
       transform="matrix(0.85362266,0,0,0.85362266,6.8811034,2.4386297)">
      <path
         style="fill:#5f5fd3;fill-opacity:1;stroke-width:0.105004"
         d="m 34.261375,23.375601 c -2.04219,-0.385895 -4.136264,-1.59184 -5.373213,-3.094346 -0.980538,-1.191052 -1.390101,-2.422902 -1.475582,-4.438152 -0.09504,-2.240612 0.365276,-3.899353 1.581138,-5.697641 0.794495,-1.1750693 2.43219,-2.6775943 2.918471,-2.6775943 0.506397,0 2.517996,1.2144192 3.805616,2.2974881 2.305086,1.9388972 3.862754,4.5432142 4.592204,7.6778712 0.227927,0.97947 0.382449,3.626678 0.259537,4.446313 -0.06831,0.455527 -0.110359,0.510397 -0.565887,0.738396 -1.629966,0.815835 -3.85108,1.105031 -5.742284,0.747665 z"
         id="path976" />
      <path
         style="fill:#5f5fd3;fill-opacity:1;stroke-width:0.105004"
         d="m 12.539637,24.084718 c -0.430028,-1.901477 -0.509534,-4.066489 -0.213327,-5.809209 0.870789,-5.123216 4.451757,-9.394285 9.314829,-11.1099148 1.142828,-0.4031715 2.655881,-0.716036 3.915047,-0.8095428 0.968654,-0.071929 2.569713,0.021809 2.553745,0.1494832 -0.0048,0.038383 -0.30012,0.3090263 -0.656272,0.6014186 -0.356152,0.2923962 -0.925282,0.8594168 -1.264734,1.2600465 -0.796882,0.940513 -2.460338,3.4680643 -3.900142,5.9261143 -2.380746,4.064419 -3.966809,6.258273 -5.70671,7.893552 -1.221148,1.147721 -3.337677,2.606828 -3.781373,2.606828 -0.05542,0 -0.172902,-0.318951 -0.261063,-0.708776 z"
         id="path974" />
      <path
         style="fill:#5f5fd3;fill-opacity:1;stroke-width:0.105004"
         d="m 24.758535,34.720557 c -0.08663,-0.02078 -0.511893,-0.09451 -0.945033,-0.163857 -2.477935,-0.396688 -5.203141,-1.749457 -7.139346,-3.54391 -0.696943,-0.645916 -0.770177,-0.748833 -0.64241,-0.902776 0.220733,-0.265968 2.790538,-1.48762 3.762899,-1.788835 2.310035,-0.715588 3.761362,-0.883969 8.691526,-1.008369 6.943802,-0.175209 8.68446,-0.348503 10.421624,-1.037549 0.303198,-0.120259 0.551271,-0.182604 0.551271,-0.138535 0,0.04407 -0.187835,0.447411 -0.417406,0.896317 -1.349818,2.639433 -3.841946,5.070817 -6.485665,6.327596 -2.025631,0.962948 -3.492327,1.302859 -5.854888,1.35688 -0.981786,0.02244 -1.855941,0.02383 -1.942572,0.0032 z"
         id="path956" />
    </g>
    <path
       style="fill:#000000;stroke-width:0.264815"
       id="path872"
       d="" />
    <path
       style="fill:#1a1a1a;stroke-width:0.158124"
       d="m 56.592213,29.637563 c -2.937762,-0.431589 -5.407354,-2.161635 -6.631591,-4.645693 -0.77112,-1.564652 -1.090311,-3.024376 -1.090845,-4.98865 -7.51e-4,-2.765123 0.763127,-4.834288 2.44134,-6.61301 1.759025,-1.864373 3.832982,-2.814826 6.486631,-2.972691 1.620458,-0.0964 3.569593,0.194668 4.724444,0.705514 l 0.731791,0.323706 v 0.878574 c 0,0.483215 -0.02759,0.878574 -0.06131,0.878574 -0.03372,0 -0.521265,-0.21524 -1.083434,-0.478311 -1.400538,-0.65539 -3.324995,-0.909209 -4.981068,-0.656958 -3.147599,0.479439 -5.716578,2.845814 -6.347869,5.847242 -0.218846,1.040486 -0.227611,3.032165 -0.01831,4.160922 0.236821,1.277178 1.136331,2.970501 2.078393,3.912563 2.283545,2.283545 6.315415,2.88563 9.346261,1.395691 l 1.067338,-0.524696 v 0.898259 0.898256 l -0.921971,0.413757 c -1.472402,0.660774 -3.642251,0.875101 -5.7398,0.566951 z m 18.648081,-0.04177 c -1.111302,-0.314379 -1.959897,-0.95197 -2.480707,-1.863874 -0.572201,-1.001887 -0.724725,-1.945576 -0.494049,-3.056737 0.268982,-1.295682 0.877546,-2.010603 2.317265,-2.722255 l 1.225284,-0.605656 2.498833,-0.0561 2.498833,-0.0561 v -0.783094 c 0,-2.049488 -0.828417,-3.27766 -2.434304,-3.608986 -1.521272,-0.313869 -2.661812,-0.107885 -4.966488,0.896959 -0.159094,0.06937 -0.195187,-0.122137 -0.158124,-0.838976 l 0.04802,-0.928857 1.027807,-0.377581 c 1.3703,-0.5034 3.918991,-0.561537 5.194612,-0.118493 1.143761,0.397247 2.093154,1.341989 2.563181,2.55062 0.355178,0.91331 0.371281,1.148068 0.431094,6.285432 l 0.06214,5.336687 h -0.883968 -0.883969 v -0.82164 -0.821637 l -0.513902,0.49729 c -0.282648,0.273511 -0.845124,0.643583 -1.249951,0.822384 -0.948133,0.418767 -2.809527,0.551268 -3.801605,0.270615 z m 3.157401,-1.611215 c 0.975712,-0.289756 1.680838,-0.850832 2.098744,-1.669994 0.239478,-0.469416 0.309314,-0.929035 0.309314,-2.035722 V 22.84945 l -2.016082,9.15e-4 c -2.186204,9.15e-4 -2.879577,0.127707 -3.680445,0.672799 -0.827872,0.56347 -1.137387,1.093689 -1.150623,1.97109 -0.03143,2.08335 1.990324,3.217567 4.439092,2.490361 z m 27.628845,1.59953 c -1.86783,-0.462827 -3.25035,-1.624324 -4.11899,-3.460502 -1.81986,-3.84691 -0.40294,-8.73653 3.01051,-10.388956 2.08003,-1.006925 5.07889,-0.700246 6.92322,0.708005 3.16846,2.419291 3.44214,8.622248 0.50979,11.55458 -1.51167,1.511676 -4.05382,2.149521 -6.32453,1.586873 z m 3.7596,-1.802766 c 0.80288,-0.357425 1.92977,-1.543457 2.33334,-2.455802 0.47947,-1.083928 0.66871,-2.682174 0.46981,-3.967776 -0.46599,-3.011804 -2.06996,-4.562139 -4.74431,-4.58566 -1.57081,-0.01382 -2.44841,0.332998 -3.39006,1.339699 -0.87543,0.935911 -1.29649,1.857573 -1.52682,3.342144 -0.36048,2.32336 0.4822,4.640893 2.15005,5.913022 1.1527,0.879206 3.24934,1.063739 4.70799,0.414373 z m 35.85978,1.779573 c -2.96789,-0.643549 -5.20779,-2.933115 -6.11521,-6.250783 -0.43681,-1.597053 -0.40043,-5.061475 0.0705,-6.706582 1.32898,-4.643294 5.21615,-7.0001111 9.90676,-6.006534 1.59216,0.337256 2.71015,0.939095 3.79773,2.044414 1.80125,1.830602 2.51198,3.931515 2.51725,7.440849 0.004,2.536512 -0.21216,3.590855 -1.11282,5.432826 -1.60148,3.275233 -5.20341,4.882965 -9.06415,4.04581 z m 4.46545,-1.811309 c 1.68877,-0.631848 3.00277,-2.235485 3.69121,-4.504846 0.21946,-0.723404 0.28782,-1.474541 0.28782,-3.162481 0,-2.458469 -0.19963,-3.402565 -1.06398,-5.031655 -1.20097,-2.263518 -3.84529,-3.458538 -6.60562,-2.985194 -2.87565,0.493119 -4.72152,2.486466 -5.31124,5.735602 -0.27503,1.515211 -0.20424,3.992712 0.151,5.285604 0.71279,2.594159 2.56749,4.494291 4.8576,4.976561 1.04005,0.219022 2.97602,0.06699 3.99321,-0.313591 z m 12.20734,1.837965 c -0.60877,-0.116529 -1.48043,-0.372657 -1.93702,-0.569173 l -0.83016,-0.357303 v -0.916651 -0.916652 l 0.90922,0.451388 c 1.25725,0.624171 3.28891,1.012736 4.61023,0.881728 2.21096,-0.219215 3.49188,-1.310733 3.62021,-3.084912 0.13457,-1.860468 -0.62048,-2.584327 -4.54491,-4.357156 -2.65807,-1.20076 -3.54,-1.863844 -4.18625,-3.147476 -0.38396,-0.762633 -0.4612,-1.109704 -0.4612,-2.072391 0,-2.605203 1.77252,-4.399983 4.8097,-4.870095 1.26495,-0.195795 3.29475,0.01086 4.38283,0.446228 l 0.66387,0.265626 v 0.999506 0.999505 L 168.67955,12.9621 c -0.75112,-0.419811 -2.42333,-0.859156 -3.28373,-0.862749 -0.92459,-0.0038 -2.40882,0.456736 -2.99805,0.930381 -0.8383,0.673851 -1.15957,1.335005 -1.15957,2.386314 0,1.702767 0.756,2.418511 4.17723,3.954774 1.12726,0.50618 2.41291,1.153492 2.85701,1.438471 1.52659,0.979607 2.31951,2.648321 2.12884,4.480155 -0.28228,2.711939 -2.27314,4.306941 -5.55259,4.448548 -0.80933,0.03495 -1.9005,-0.02992 -2.52998,-0.150423 z M 66.732712,19.607911 V 9.5670328 h 0.790621 0.79062 V 19.607911 29.648788 h -0.79062 -0.790621 z m 19.923631,2.846233 v -7.194645 h 0.869682 0.869683 l 0.003,1.304523 0.003,1.304524 0.462384,-0.736191 c 0.798337,-1.271078 2.170724,-2.03098 3.667967,-2.03098 h 0.607361 v 0.965662 c 0,0.86456 -0.02901,0.951838 -0.276717,0.83363 -0.152194,-0.07262 -0.612867,-0.126483 -1.023715,-0.1197 -0.951543,0.01571 -1.794044,0.553994 -2.47415,1.580766 -0.897022,1.354256 -0.969139,1.860955 -0.969139,6.809219 v 4.477836 h -0.869683 -0.869682 z m 9.171197,0 v -7.194645 h 0.790625 0.790624 v 7.194645 7.194644 H 96.618165 95.82754 Z m 22.13737,0 v -7.194645 h 0.78423 0.78423 l 0.0459,1.289334 0.0459,1.289334 0.63289,-0.849576 c 0.45143,-0.606003 0.90156,-0.986988 1.57006,-1.328865 0.82976,-0.424359 1.09377,-0.479289 2.30358,-0.479289 1.20829,0 1.47492,0.05531 2.30398,0.477929 1.01718,0.518514 1.81668,1.491275 2.11836,2.577453 0.0954,0.34337 0.16187,2.799119 0.16238,5.99722 l 8.9e-4,5.415749 h -0.79063 -0.79061 v -4.894063 c 0,-2.949702 -0.0688,-5.21491 -0.1732,-5.701653 -0.29557,-1.378155 -1.5468,-2.366419 -3.00012,-2.369574 -1.52468,-0.0033 -3.27438,1.202983 -3.9634,2.732487 -0.35832,0.795445 -0.37326,0.989762 -0.42468,5.528612 l -0.0533,4.704191 h -0.77825 -0.77825 z M 96.090649,11.66915 c -0.421105,-0.108691 -0.736636,-0.950473 -0.553345,-1.476261 0.140714,-0.4036523 0.69669,-0.7839802 1.146036,-0.7839802 0.114638,0 0.395912,0.1474755 0.62506,0.3277245 0.576182,0.4532267 0.576182,1.2631847 0,1.7164117 -0.410197,0.322662 -0.644095,0.364168 -1.217751,0.216105 z"
       id="path860" />
  </g>
</svg>
